# xmcd
#
# Track frame offsets: 
#        150
#        9484
#        19192
#        29254
#        40290
#        51450
#        60563
#        71563
#        81426
#        94569
#        104010
#        115975
#        128645
#        139325
#        149430
#        159795
#        170049
#        180280
#        191038
#        201564
#        210548
#        221371
#        231249
#        244882
#        254182
#        263990
#        276613
#        287573
#        300503
#        313003
#
# Disc length: 4295 seconds
#
# Revision: 1
# Processed by: cddbd v1.5.2PL0 Copyright (c) Steve Scherf et al.
# Submitted via: ExactAudioCopyFreeDBPlugin 1.0
#
DISCID=cf10c51e
DTITLE=Roy Head - Treat Her Right
DYEAR=1999
DGENRE=Rhythm and Blues
TTITLE0=Treat Her Right
TTITLE1=So Long, My Love
TTITLE2=Live it Up
TTITLE3=My Baby's Fine
TTITLE4=One More Time
TTITLE5=Yes I Do
TTITLE6=Don't Be Blue
TTITLE7=Night Time Blues
TTITLE8=Here I Am in Love Again
TTITLE9=Summertime Love
TTITLE10=Woe, Woe
TTITLE11=Got My Mojo Workin'
TTITLE12=Your Turn to Cry
TTITLE13=Walking All Day
TTITLE14=Apple of My Eye
TTITLE15=My Babe
TTITLE16=Live it Up (alternate version)
TTITLE17=One More Time (alternate version)
TTITLE18=Don't Be Blue (alternate version)
TTITLE19=Yes I Do (alternate version)
TTITLE20=My Baby's Fine (alternate version)
TTITLE21=Night Time Blues (alternate version)
TTITLE22=Your Turn to Cry (alternate version)
TTITLE23=Summertime Love (alternate version)
TTITLE24=Walking All Day (alternate version)
TTITLE25=Here I Am in Love Again (alternate version)
TTITLE26=I'll Be Around
TTITLE27=One Night
TTITLE28=Just Because
TTITLE29=Don't Cry No More
EXTD=YEAR: 1999
EXTT0=
EXTT1=
EXTT2=
EXTT3=
EXTT4=
EXTT5=
EXTT6=
EXTT7=
EXTT8=
EXTT9=
EXTT10=
EXTT11=
EXTT12=
EXTT13=
EXTT14=
EXTT15=
EXTT16=
EXTT17=
EXTT18=
EXTT19=
EXTT20=
EXTT21=
EXTT22=
EXTT23=
EXTT24=
EXTT25=
EXTT26=
EXTT27=
EXTT28=
EXTT29=
PLAYORDER=
